<svg width="512" height="512" viewBox="0 0 512 512" fill="none" xmlns="http://www.w3.org/2000/svg">
<path d="M279 161H35C15.6992 161 0 176.699 0 196V356C0 375.301 15.6992 391 35 391H112V421H97C88.7148 421 82 427.715 82 436C82 444.285 88.7148 451 97 451H217C225.285 451 232 444.285 232 436C232 427.715 225.285 421 217 421H202V391H279C298.301 391 314 375.301 314 356V196C314 176.699 298.301 161 279 161ZM172 421H142V391H172V421ZM284 356C284 358.758 281.758 361 279 361H35C32.2422 361 30 358.758 30 356V196C30 193.242 32.2422 191 35 191H279C281.758 191 284 193.242 284 196V356Z" fill="white"/>
<path d="M497 61H359C350.715 61 344 67.7148 344 76V436C344 444.285 350.715 451 359 451H497C505.285 451 512 444.285 512 436V76C512 67.7148 505.285 61 497 61ZM374 91H482V121H374V91ZM374 421V151H482V421H374Z" fill="white"/>
<path d="M443 376C443 384.285 436.285 391 428 391C419.715 391 413 384.285 413 376C413 367.715 419.715 361 428 361C436.285 361 443 367.715 443 376Z" fill="white"/>
</svg>
