<svg width="512" height="512" viewBox="0 0 512 512" fill="none" xmlns="http://www.w3.org/2000/svg">
<path d="M505.752 6.248C501.75 2.247 496.324 0 490.667 0L21.332 0.03C9.55 0.03 0 9.581 0 21.363V490.666C0 502.448 9.552 512 21.333 512H490.666C502.448 512 511.999 502.448 511.999 490.667V21.333C512 15.676 509.753 10.249 505.752 6.248ZM469.333 469.333H42.667V42.695L469.334 42.668V469.333H469.333Z" fill="white"/>
<path d="M179.52 274.645C170.465 274.645 163.914 280.197 162.833 288.802C161.792 297.159 161.163 302.202 148.271 302.202C135.784 302.202 131.57 297.753 131.57 284.574V227.243C131.57 212.652 137.422 209.798 147.533 209.798C157.952 209.798 162.364 213.332 162.764 221.999C162.768 222.097 162.774 222.197 162.782 222.295C163.315 229.514 168.7 236.797 179.523 236.797C184.566 236.797 196.295 235.036 196.295 218.733C196.295 198.084 179.545 177.18 147.534 177.18C116.996 177.18 98.025 196.363 98.025 227.241V284.572C98.022 316.034 116.322 334.816 146.972 334.816C179.35 334.816 196.292 313.727 196.292 292.895C196.292 276.423 184.563 274.645 179.52 274.645Z" fill="white"/>
<path d="M290.495 239.972H277.12V226.599C277.12 218.064 269.928 211.122 261.09 211.122C252.4 211.122 245.059 218.209 245.059 226.599V239.972H231.315C222.843 239.972 216.207 247.093 216.207 256.183C216.207 265.218 222.701 272.032 231.315 272.032H245.059V285.778C245.059 294.247 252.1 300.881 261.09 300.881C270.078 300.881 277.12 294.246 277.12 285.778V272.032H290.495C299.028 272.032 305.97 264.922 305.97 256.183C305.97 247.243 299.028 239.972 290.495 239.972Z" fill="white"/>
<path d="M398.505 239.972H385.13V226.599C385.13 218.064 377.938 211.122 369.099 211.122C360.411 211.122 353.069 218.209 353.069 226.599V239.972H339.322C330.85 239.972 324.214 247.093 324.214 256.183C324.214 265.218 330.711 272.032 339.322 272.032H353.069V285.778C353.069 294.247 360.11 300.881 369.099 300.881C378.087 300.881 385.13 294.246 385.13 285.778V272.032H398.505C407.037 272.032 413.977 264.922 413.977 256.183C413.978 247.243 407.037 239.972 398.505 239.972Z" fill="white"/>
</svg>
