<svg width="512" height="512" viewBox="0 0 512 512" fill="none" xmlns="http://www.w3.org/2000/svg">
<g clip-path="url(#clip0)">
<path d="M462.452 307.065H152.774V157.387C152.774 148.265 145.38 140.871 136.258 140.871C127.136 140.871 119.742 148.265 119.742 157.387V307.065H49.5484C22.2266 307.065 0 329.291 0 356.613V441.258C0 468.58 22.2266 490.807 49.5484 490.807H462.452C489.773 490.807 512 468.58 512 441.258V356.613C512 329.291 489.773 307.065 462.452 307.065ZM478.968 441.258C478.968 450.365 471.558 457.774 462.452 457.774H49.5484C40.4418 457.774 33.0323 450.365 33.0323 441.258V356.613C33.0323 347.507 40.4418 340.097 49.5484 340.097H462.452C471.558 340.097 478.968 347.507 478.968 356.613V441.258ZM90.8387 374.162C77.1788 374.162 66.0645 385.276 66.0645 398.936C66.0645 412.596 77.1788 423.71 90.8387 423.71C104.499 423.71 115.613 412.596 115.613 398.936C115.613 385.276 104.499 374.162 90.8387 374.162ZM165.161 374.162C151.501 374.162 140.387 385.276 140.387 398.936C140.387 412.596 151.501 423.71 165.161 423.71C178.821 423.71 189.935 412.596 189.935 398.936C189.935 385.276 178.821 374.162 165.161 374.162ZM239.484 374.162C225.824 374.162 214.71 385.276 214.71 398.936C214.71 412.596 225.824 423.71 239.484 423.71C253.144 423.71 264.258 412.596 264.258 398.936C264.258 385.276 253.144 374.162 239.484 374.162ZM445.935 398.936C445.935 408.058 438.541 415.452 429.419 415.452H339.613C330.491 415.452 323.097 408.058 323.097 398.936C323.097 389.814 330.491 382.42 339.613 382.42H429.419C438.541 382.42 445.935 389.814 445.935 398.936ZM173.641 174.957C186.412 147.78 166.623 116.097 136.258 116.097C105.87 116.097 86.111 147.795 98.8748 174.957C102.754 183.213 99.2052 193.051 90.9502 196.93C82.6963 200.809 72.8578 197.26 68.9775 189.005C45.9923 140.086 81.5948 83.0648 136.258 83.0648C190.933 83.0648 226.523 140.087 203.539 189.005C199.661 197.256 189.828 200.81 181.566 196.93C173.311 193.051 169.762 183.213 173.641 174.957ZM39.9092 253.736C-13.2181 200.609 -13.2181 114.166 39.9092 61.0385C93.0364 7.91125 179.48 7.91125 232.607 61.0385C285.734 114.166 285.734 200.609 232.607 253.736C229.382 256.961 225.155 258.574 220.929 258.574C206.349 258.574 198.814 240.814 209.251 230.38C249.499 190.133 249.499 124.644 209.251 84.3964C168.91 44.0558 103.614 44.0506 63.2671 84.3964C23.0194 124.644 23.0194 190.133 63.2671 230.38C69.7177 236.83 69.7177 247.288 63.2671 253.737C56.8165 260.186 46.3587 260.186 39.9092 253.736V253.736Z" fill="white"/>
</g>
<defs>
<clipPath id="clip0">
<rect width="512" height="512" fill="white"/>
</clipPath>
</defs>
</svg>
