<svg width="512" height="512" viewBox="0 0 512 512" fill="none" xmlns="http://www.w3.org/2000/svg">
<path d="M512 120V0H352V120H412V221.363C405.934 224.875 400.875 229.934 397.363 236H312.559C304.305 212.723 282.074 196 256 196C229.926 196 207.695 212.723 199.441 236H114.637C111.316 230.27 106.625 225.434 101 221.957V120H160V0H0V120H61V220.793C48.4961 227.559 40 240.785 40 256C40 271.215 48.4961 284.441 61 291.207V392H0V512H160V392H101V290.043C106.625 286.566 111.316 281.73 114.637 276H199.441C207.695 299.277 229.926 316 256 316C282.074 316 304.305 299.277 312.559 276H397.363C400.875 282.066 405.934 287.125 412 290.637V392H352V512H512V392H452V290.637C463.953 283.719 472 270.805 472 256C472 241.195 463.953 228.281 452 221.363V120H512ZM40 40H120V80H40V40ZM120 472H40V432H120V472ZM472 472H392V432H472V472ZM256 276C244.973 276 236 267.027 236 256C236 244.973 244.973 236 256 236C267.027 236 276 244.973 276 256C276 267.027 267.027 276 256 276ZM392 40H472V80H392V40Z" fill="white"/>
</svg>
