<svg width="512" height="512" viewBox="0 0 512 512" fill="none" xmlns="http://www.w3.org/2000/svg">
<path d="M336 400C327.164 400 320 407.164 320 416V448C320 456.836 327.164 464 336 464C344.836 464 352 456.836 352 448V416C352 407.164 344.836 400 336 400Z" fill="white"/>
<path d="M288 400C279.164 400 272 407.164 272 416V448C272 456.836 279.164 464 288 464C296.836 464 304 456.836 304 448V416C304 407.164 296.836 400 288 400Z" fill="white"/>
<path d="M240 400C231.164 400 224 407.164 224 416V448C224 456.836 231.164 464 240 464C248.836 464 256 456.836 256 448V416C256 407.164 248.836 400 240 400Z" fill="white"/>
<path d="M400 448C408.837 448 416 440.837 416 432C416 423.163 408.837 416 400 416C391.163 416 384 423.163 384 432C384 440.837 391.163 448 400 448Z" fill="white"/>
<path d="M400 96C408.837 96 416 88.8366 416 80C416 71.1634 408.837 64 400 64C391.163 64 384 71.1634 384 80C384 88.8366 391.163 96 400 96Z" fill="white"/>
<path d="M112 96C120.837 96 128 88.8366 128 80C128 71.1634 120.837 64 112 64C103.163 64 96 71.1634 96 80C96 88.8366 103.163 96 112 96Z" fill="white"/>
<path d="M432 0H80C53.533 0 32 21.533 32 48V464C32 490.467 53.533 512 80 512H432C458.467 512 480 490.467 480 464V48C480 21.533 458.467 0 432 0ZM80 480C71.178 480 64 472.822 64 464V400H91.568L160 441.059V480H80ZM448 464C448 472.822 440.822 480 432 480H192V432C192 426.38 189.051 421.172 184.232 418.28L151.804 398.823L183.847 366.78C289.489 420.384 416 343.356 416 224C416 135.776 344.224 64 256 64C167.776 64 96 135.776 96 224C96 274.562 119.581 319.714 156.317 349.056L123.52 381.853C103.35 369.751 101.868 368 96 368H64V48C64 39.178 71.178 32 80 32H432C440.822 32 448 39.178 448 48V464ZM219.313 308.687C213.065 302.438 202.934 302.438 196.686 308.687L179.108 326.265C148.091 302.885 128 265.746 128 224C128 153.42 185.42 96 256 96C326.58 96 384 153.42 384 224C384 314.958 291.522 376.577 207.982 342.645L219.313 331.314C225.562 325.065 225.562 314.935 219.313 308.687V308.687Z" fill="white"/>
<path d="M272 144C272 135.164 264.836 128 256 128C203.065 128 160 171.065 160 224C160 232.836 167.164 240 176 240C184.836 240 192 232.836 192 224C192 188.71 220.71 160 256 160C264.836 160 272 152.836 272 144Z" fill="white"/>
<path d="M240 304C240 312.836 247.164 320 256 320C308.935 320 352 276.935 352 224C352 215.164 344.836 208 336 208C327.164 208 320 215.164 320 224C320 259.29 291.29 288 256 288C247.164 288 240 295.164 240 304Z" fill="white"/>
<path d="M224 224C224 241.645 238.355 256 256 256C273.645 256 288 241.645 288 224C288 206.355 273.645 192 256 192C238.355 192 224 206.355 224 224Z" fill="white"/>
</svg>
