<?xml version="1.0" encoding="iso-8859-1"?>
<!-- Generator: Adobe Illustrator 19.0.0, SVG Export Plug-In . SVG Version: 6.00 Build 0)  -->
<svg version="1.1" id="Layer_1" xmlns="http://www.w3.org/2000/svg" xmlns:xlink="http://www.w3.org/1999/xlink" x="0px" y="0px"
	 viewBox="0 0 491.52 491.52" style="enable-background:new 0 0 491.52 491.52;" xml:space="preserve">
<path style="fill:#E1E6E9;" d="M489.198,422.764L442.096,315.45c-0.832-1.805-4.685-3.256-8.611-3.256H58.034
	c-3.926,0-7.778,1.452-8.609,3.256L2.205,423.03H0.001v5.489H0.12c0.048,1.911,2.484,3.322,6.481,3.322h478.318
	c3.999,0,6.536-1.411,6.585-3.322v-5.756L489.198,422.764z"/>
<path style="fill:#EBF0F3;" d="M484.919,426.084H6.601c-5.003,0-7.745-2.175-6.145-4.826l48.969-111.564
	c0.831-1.804,4.684-3.256,8.61-3.256h375.45c3.927,0,7.779,1.452,8.61,3.256l48.969,111.564
	C492.664,423.909,489.921,426.084,484.919,426.084z"/>
<polygon style="fill:#E1E6E9;" points="170.066,417.91 184.788,387.481 306.732,387.481 321.454,417.91 "/>
<g>
	<polygon style="fill:#64798A;" points="76.158,324.774 52.74,324.774 55.223,319.156 78.34,319.156 	"/>
	<polygon style="fill:#64798A;" points="112.384,324.774 88.965,324.774 90.983,319.156 114.1,319.156 	"/>
	<polygon style="fill:#64798A;" points="140.194,324.774 116.775,324.774 118.434,319.156 141.552,319.156 	"/>
	<polygon style="fill:#64798A;" points="168.003,324.774 144.585,324.774 145.886,319.156 169.003,319.156 	"/>
	<polygon style="fill:#64798A;" points="195.813,324.774 172.394,324.774 173.338,319.156 196.455,319.156 	"/>
	<polygon style="fill:#64798A;" points="233.868,324.774 210.449,324.774 210.903,319.156 234.021,319.156 	"/>
	<polygon style="fill:#64798A;" points="261.677,324.774 238.259,324.774 238.355,319.156 261.473,319.156 	"/>
	<polygon style="fill:#64798A;" points="289.487,324.774 266.068,324.774 265.807,319.156 288.924,319.156 	"/>
	<polygon style="fill:#64798A;" points="317.296,324.774 293.878,324.774 293.259,319.156 316.376,319.156 	"/>
	<polygon style="fill:#64798A;" points="71.368,337.106 47.289,337.106 51.139,328.394 74.752,328.394 	"/>
	<polygon style="fill:#64798A;" points="102.362,337.106 78.282,337.106 81.532,328.394 105.144,328.394 	"/>
	<polygon style="fill:#64798A;" points="133.356,337.106 109.276,337.106 111.924,328.394 135.537,328.394 	"/>
	<polygon style="fill:#64798A;" points="164.349,337.106 140.269,337.106 142.316,328.394 165.929,328.394 	"/>
	<polygon style="fill:#64798A;" points="195.343,337.106 171.263,337.106 172.708,328.394 196.321,328.394 	"/>
	<polygon style="fill:#64798A;" points="226.336,337.106 202.256,337.106 203.1,328.394 226.713,328.394 	"/>
	<polygon style="fill:#64798A;" points="257.33,337.106 233.25,337.106 233.492,328.394 257.105,328.394 	"/>
	<polygon style="fill:#64798A;" points="288.323,337.106 264.243,337.106 263.885,328.394 287.497,328.394 	"/>
	<polygon style="fill:#64798A;" points="319.317,337.106 295.237,337.106 294.277,328.394 317.889,328.394 	"/>
	<polygon style="fill:#64798A;" points="66.3,350.155 41.52,350.155 45.596,340.934 69.881,340.934 	"/>
	<polygon style="fill:#64798A;" points="98.194,350.155 73.415,350.155 76.854,340.934 101.139,340.934 	"/>
	<polygon style="fill:#64798A;" points="130.089,350.155 105.309,350.155 108.112,340.934 132.397,340.934 	"/>
	<polygon style="fill:#64798A;" points="161.983,350.155 137.203,350.155 139.37,340.934 163.655,340.934 	"/>
	<polygon style="fill:#64798A;" points="193.877,350.155 169.098,350.155 170.627,340.934 194.913,340.934 	"/>
	<polygon style="fill:#64798A;" points="225.772,350.155 200.992,350.155 201.885,340.934 226.17,340.934 	"/>
	<polygon style="fill:#64798A;" points="257.666,350.155 232.886,350.155 233.143,340.934 257.428,340.934 	"/>
	<polygon style="fill:#64798A;" points="289.56,350.155 264.78,350.155 264.401,340.934 288.686,340.934 	"/>
	<polygon style="fill:#64798A;" points="321.455,350.155 296.675,350.155 295.659,340.934 319.944,340.934 	"/>
	<polygon style="fill:#64798A;" points="72.287,363.985 35.407,363.985 39.728,354.21 75.85,354.21 	"/>
	<polygon style="fill:#64798A;" points="105.322,363.985 78.773,363.985 82.203,354.21 108.207,354.21 	"/>
	<polygon style="fill:#64798A;" points="138.302,363.985 111.753,363.985 114.506,354.21 140.51,354.21 	"/>
	<polygon style="fill:#64798A;" points="172.474,363.985 145.925,363.985 147.976,354.21 173.979,354.21 	"/>
	<polygon style="fill:#64798A;" points="206.646,363.985 180.097,363.985 181.445,354.21 207.449,354.21 	"/>
	<polygon style="fill:#64798A;" points="240.817,363.985 214.268,363.985 214.915,354.21 240.919,354.21 	"/>
	<polygon style="fill:#64798A;" points="274.989,363.985 248.44,363.985 248.385,354.21 274.388,354.21 	"/>
	<polygon style="fill:#64798A;" points="323.72,363.985 283.864,363.985 283.082,354.21 322.119,354.21 	"/>
	<polygon style="fill:#64798A;" points="55.225,378.668 28.916,378.668 33.504,368.288 59.257,368.288 	"/>
	<polygon style="fill:#64798A;" points="190.675,378.668 62.778,378.668 66.651,368.288 191.841,368.288 	"/>
	<polygon style="fill:#64798A;" points="224.538,378.668 198.229,378.668 199.235,368.288 224.987,368.288 	"/>
	<polygon style="fill:#64798A;" points="258.401,378.668 232.092,378.668 232.381,368.288 258.133,368.288 	"/>
	<polygon style="fill:#64798A;" points="292.263,378.668 265.954,378.668 265.527,368.288 291.279,368.288 	"/>
	<polygon style="fill:#64798A;" points="326.126,378.668 299.817,378.668 298.673,368.288 324.425,368.288 	"/>
	<polygon style="fill:#64798A;" points="356.179,328.07 332.583,328.07 330.824,319.156 353.942,319.156 	"/>
	<polygon style="fill:#64798A;" points="384.198,328.07 360.603,328.07 358.276,319.156 381.393,319.156 	"/>
	<polygon style="fill:#64798A;" points="412.218,328.07 388.622,328.07 385.728,319.156 408.845,319.156 	"/>
	<polygon style="fill:#64798A;" points="440.237,328.07 416.642,328.07 413.18,319.156 436.297,319.156 	"/>
	<polygon style="fill:#64798A;" points="359.102,339.715 334.882,339.715 333.029,330.328 356.746,330.328 	"/>
	<polygon style="fill:#64798A;" points="387.863,339.715 363.643,339.715 361.192,330.328 384.909,330.328 	"/>
	<polygon style="fill:#64798A;" points="416.624,339.715 392.404,339.715 389.356,330.328 413.072,330.328 	"/>
	<polygon style="fill:#64798A;" points="445.385,339.715 421.165,339.715 417.519,330.328 441.235,330.328 	"/>
	<polygon style="fill:#64798A;" points="362.183,351.993 337.305,351.993 335.351,342.095 359.699,342.095 	"/>
	<polygon style="fill:#64798A;" points="391.726,351.993 366.848,351.993 364.264,342.095 388.611,342.095 	"/>
	<polygon style="fill:#64798A;" points="421.269,351.993 396.391,351.993 393.177,342.095 417.524,342.095 	"/>
	<polygon style="fill:#64798A;" points="450.813,351.993 425.934,351.993 422.089,342.095 446.437,342.095 	"/>
	<polygon style="fill:#64798A;" points="365.437,364.958 339.863,364.958 337.8,354.504 362.813,354.504 	"/>
	<polygon style="fill:#64798A;" points="395.806,364.958 370.232,364.958 367.503,354.504 392.516,354.504 	"/>
	<polygon style="fill:#64798A;" points="426.175,364.958 400.601,364.958 397.206,354.504 422.219,354.504 	"/>
	<polygon style="fill:#64798A;" points="456.544,364.958 430.97,364.958 426.909,354.504 451.923,354.504 	"/>
	<polygon style="fill:#64798A;" points="368.878,378.668 342.569,378.668 340.387,367.612 366.103,367.612 	"/>
	<polygon style="fill:#64798A;" points="400.12,378.668 373.811,378.668 370.925,367.612 396.641,367.612 	"/>
	<polygon style="fill:#64798A;" points="431.362,378.668 405.053,378.668 401.463,367.612 427.179,367.612 	"/>
	<polygon style="fill:#64798A;" points="462.604,378.668 436.295,378.668 432.001,367.612 457.717,367.612 	"/>
	<path style="fill:#64798A;" d="M431.276,59.679H58.747c-4.949,0-8.962,4.012-8.962,8.962v226.413c0,4.949,4.012,8.961,8.962,8.961
		h372.528c4.949,0,8.962-4.012,8.962-8.961V68.641C440.237,63.691,436.225,59.679,431.276,59.679z"/>
</g>
<rect x="69.965" y="79.857" style="fill:#3A556A;" width="350.106" height="203.981"/>
<rect x="69.965" y="108.989" style="fill:#2F4859;" width="350.106" height="174.848"/>
<path style="fill:#3A556A;" d="M409.152,293.889H80.871c-1.03,0-1.865,0.834-1.865,1.864v13.955c0,1.03,0.835,1.864,1.865,1.864
	h328.28c1.03,0,1.865-0.834,1.865-1.864v-13.955C411.016,294.723,410.181,293.889,409.152,293.889z"/>
<circle style="fill:#E56353;" cx="400.845" cy="94.208" r="9.037"/>
<circle style="fill:#44C4A1;" cx="376.832" cy="94.208" r="9.037"/>
<circle style="fill:#FCD462;" cx="352.814" cy="94.208" r="9.037"/>
<rect x="80.128" y="85.171" style="fill:#EBF0F3;" width="253.957" height="18.079"/>
<path style="fill:#FCD462;" d="M347.684,155.548c-14.446,1.605-26.135,13.249-27.796,27.689c-1.087,9.451,2.002,18.175,7.654,24.594
	c6.26,7.111,9.448,16.414,9.448,25.888h28.635v-0.004c0-9.628,3.485-18.909,9.744-26.225c4.72-5.517,7.574-12.675,7.574-20.509
	C382.943,168.316,366.778,153.426,347.684,155.548z"/>
<path style="fill:#64798A;" d="M337.026,233.718v13.887c0,0.888,0.72,1.609,1.609,1.609h7.196c0.396,0,0.767,0.169,1.018,0.475
	c0.676,0.822,2.409,1.408,4.459,1.408s3.783-0.586,4.459-1.408c0.251-0.306,0.622-0.475,1.018-0.475h7.196
	c0.888,0,1.609-0.72,1.609-1.609v-13.886H337.026z"/>
<g>
	<path style="fill:#3A556A;" d="M366.567,233.594l-31.027,4.493c-0.947,0.14-1.6,1.022-1.46,1.969s1.021,1.601,1.968,1.46
		l31.027-4.493c0.947-0.14,1.6-1.022,1.46-1.969C368.395,234.108,367.514,233.454,366.567,233.594z"/>
	<path style="fill:#3A556A;" d="M366.567,241.554l-31.027,4.493c-0.947,0.14-1.6,1.022-1.46,1.969s1.021,1.601,1.968,1.46
		l31.027-4.493c0.947-0.14,1.6-1.022,1.46-1.969C368.395,242.068,367.514,241.414,366.567,241.554z"/>
</g>
<g>
	<path style="fill:#DC8744;" d="M387.228,187.285c0-0.789,0.64-1.429,1.429-1.429h6.776c0.789,0,1.429,0.64,1.429,1.429
		c0,0.789-0.64,1.429-1.429,1.429h-6.776C387.868,188.715,387.228,188.075,387.228,187.285z"/>
	<path style="fill:#DC8744;" d="M305.753,187.285c0-0.789,0.64-1.429,1.429-1.429h6.776c0.789,0,1.429,0.64,1.429,1.429
		c0,0.789-0.64,1.429-1.429,1.429h-6.776C306.393,188.715,305.753,188.075,305.753,187.285z"/>
	<path style="fill:#DC8744;" d="M351.308,141.731c0.789,0,1.429,0.64,1.429,1.429v6.776c0,0.789-0.64,1.429-1.429,1.429
		s-1.429-0.64-1.429-1.429v-6.776C349.878,142.371,350.518,141.731,351.308,141.731z"/>
	<path style="fill:#DC8744;" d="M376.707,212.685c0.558-0.558,1.463-0.558,2.021,0l4.791,4.791c0.558,0.558,0.558,1.463,0,2.021
		c-0.558,0.558-1.463,0.558-2.021,0l-4.791-4.791C376.149,214.148,376.149,213.243,376.707,212.685z"/>
	<path style="fill:#DC8744;" d="M319.096,155.074c0.558-0.558,1.463-0.558,2.021,0l4.791,4.791c0.558,0.558,0.558,1.463,0,2.021
		c-0.558,0.558-1.463,0.558-2.021,0l-4.791-4.791C318.538,156.537,318.538,155.632,319.096,155.074z"/>
	<path style="fill:#DC8744;" d="M325.908,212.685c0.558,0.558,0.558,1.463,0,2.021l-4.791,4.791c-0.558,0.558-1.463,0.558-2.021,0
		c-0.558-0.558-0.558-1.463,0-2.021l4.791-4.791C324.445,212.127,325.35,212.127,325.908,212.685z"/>
	<path style="fill:#DC8744;" d="M383.519,155.074c0.558,0.558,0.558,1.463,0,2.021l-4.791,4.791c-0.558,0.558-1.463,0.558-2.021,0
		c-0.558-0.558-0.558-1.463,0-2.021l4.791-4.791C382.056,154.516,382.961,154.516,383.519,155.074z"/>
</g>
<polygon style="fill:#31978C;" points="195.149,201.878 173.475,194.41 131.352,209.242 93.162,213.65 93.162,222.689 
	134.485,236.926 214.799,208.648 214.799,199.61 "/>
<polygon style="fill:#3EA69B;" points="173.475,185.372 93.162,213.65 134.485,227.888 214.799,199.61 "/>
<path style="fill:#44C4A1;" d="M129.031,223.974l-24.575-8.467c2.962-1.043,2.936-2.725-0.058-3.757l63.746-22.445
	c2.994,1.032,7.823,1.023,10.785-0.02l24.575,8.467c-2.962,1.043-2.936,2.725,0.058,3.757l-63.746,22.445
	C136.822,222.922,131.993,222.931,129.031,223.974z"/>
<g>
	<path style="fill:#3EA69B;" d="M164.996,202.751c7.785,2.682,9.164,6.593,3.08,8.735c-6.084,2.142-17.326,1.704-25.111-0.978
		c-7.785-2.682-9.164-6.593-3.08-8.735C145.968,199.631,157.211,200.069,164.996,202.751z"/>
	<path style="fill:#3EA69B;" d="M187.672,194.767c1.392,0.479,1.404,1.261,0.027,1.746c-1.377,0.485-3.621,0.489-5.012,0.009
		c-1.392-0.479-1.404-1.261-0.027-1.746S186.28,194.288,187.672,194.767z"/>
	<path style="fill:#3EA69B;" d="M125.273,216.738c1.392,0.479,1.404,1.261,0.027,1.746c-1.377,0.485-3.621,0.489-5.012,0.009
		c-1.392-0.479-1.404-1.261-0.027-1.746C121.638,216.262,123.882,216.258,125.273,216.738z"/>
</g>
<path style="fill:#44C4A1;" d="M164.737,210.751l-1.999-0.689c-2.731,0.784-5.949,1.223-9.65,1.318l-0.405-1.517
	c2.85-0.075,5.204-0.351,7.07-0.829l-5.314-1.831c-2.534,0.549-4.678,0.852-6.429,0.909c-1.752,0.057-3.417-0.187-4.996-0.731
	c-1.579-0.544-2.326-1.181-2.238-1.912c0.089-0.731,0.964-1.42,2.626-2.069l-1.37-0.472l1.733-0.61l1.396,0.481
	c2.134-0.649,4.696-1.074,7.69-1.276l0.758,1.488c-2.051,0.124-3.87,0.396-5.463,0.816l5.149,1.774l0.082-0.029
	c2.571-0.561,4.763-0.869,6.576-0.923c1.817-0.054,3.523,0.194,5.12,0.744c1.598,0.551,2.34,1.196,2.223,1.936
	c-0.115,0.741-1.047,1.45-2.799,2.131l1.971,0.679L164.737,210.751z M145.147,205.333c-0.051,0.304,0.232,0.561,0.843,0.771
	c0.612,0.211,1.276,0.314,1.993,0.309c0.716-0.004,1.746-0.128,3.087-0.371l-4.738-1.633
	C145.592,204.721,145.197,205.029,145.147,205.333z M162.86,207.462c0.086-0.322-0.19-0.594-0.83-0.814
	c-0.639-0.22-1.344-0.325-2.115-0.314c-0.774,0.011-1.865,0.151-3.277,0.419l4.929,1.698
	C162.344,208.116,162.773,207.786,162.86,207.462z"/>
<polygon style="fill:#31978C;" points="195.149,191.262 173.475,183.794 131.352,198.626 93.162,203.034 93.162,212.072 
	134.485,226.31 214.799,198.032 214.799,188.994 "/>
<polygon style="fill:#3EA69B;" points="173.475,174.756 93.162,203.034 134.485,217.272 214.799,188.994 "/>
<path style="fill:#44C4A1;" d="M129.031,213.358l-24.575-8.467c2.962-1.043,2.936-2.725-0.058-3.757l63.746-22.445
	c2.994,1.032,7.823,1.023,10.785-0.02l24.575,8.467c-2.962,1.043-2.936,2.725,0.058,3.757l-63.746,22.445
	C136.822,212.306,131.993,212.315,129.031,213.358z"/>
<g>
	<path style="fill:#3EA69B;" d="M164.996,192.135c7.785,2.682,9.164,6.593,3.08,8.735c-6.084,2.142-17.326,1.704-25.111-0.978
		c-7.785-2.682-9.164-6.593-3.08-8.735C145.968,189.015,157.211,189.453,164.996,192.135z"/>
	<path style="fill:#3EA69B;" d="M187.672,184.151c1.392,0.479,1.404,1.261,0.027,1.746s-3.621,0.489-5.012,0.009
		c-1.392-0.479-1.404-1.261-0.027-1.746C184.036,183.676,186.28,183.672,187.672,184.151z"/>
	<path style="fill:#3EA69B;" d="M125.273,206.121c1.392,0.479,1.404,1.261,0.027,1.746c-1.377,0.485-3.621,0.489-5.012,0.009
		c-1.392-0.479-1.404-1.261-0.027-1.746C121.638,205.646,123.882,205.642,125.273,206.121z"/>
</g>
<path style="fill:#44C4A1;" d="M164.737,200.135l-1.999-0.689c-2.731,0.784-5.949,1.223-9.65,1.318l-0.405-1.517
	c2.85-0.075,5.204-0.351,7.07-0.829l-5.314-1.831c-2.534,0.549-4.678,0.852-6.429,0.909c-1.752,0.057-3.417-0.187-4.996-0.731
	c-1.579-0.544-2.326-1.181-2.238-1.912c0.089-0.731,0.964-1.42,2.626-2.069l-1.37-0.472l1.733-0.61l1.396,0.481
	c2.134-0.649,4.696-1.074,7.69-1.276l0.758,1.488c-2.051,0.124-3.87,0.396-5.463,0.816l5.149,1.774l0.082-0.029
	c2.571-0.561,4.763-0.869,6.576-0.923c1.817-0.054,3.523,0.194,5.12,0.744c1.598,0.551,2.34,1.196,2.223,1.936
	c-0.115,0.741-1.047,1.45-2.799,2.131l1.971,0.679L164.737,200.135z M145.147,194.717c-0.051,0.304,0.232,0.561,0.843,0.771
	c0.612,0.211,1.276,0.314,1.993,0.309c0.716-0.004,1.746-0.128,3.087-0.371l-4.738-1.633
	C145.592,194.105,145.197,194.413,145.147,194.717z M162.86,196.846c0.086-0.322-0.19-0.594-0.83-0.814
	c-0.639-0.22-1.344-0.325-2.115-0.314c-0.774,0.012-1.865,0.151-3.277,0.419l4.929,1.698
	C162.344,197.499,162.773,197.169,162.86,196.846z"/>
<polygon style="fill:#31978C;" points="195.149,180.645 173.475,173.178 131.352,188.009 93.162,192.418 93.162,201.456 
	134.485,215.694 214.799,187.416 214.799,178.377 "/>
<polygon style="fill:#3EA69B;" points="173.475,164.139 93.162,192.418 134.485,206.655 214.799,178.377 "/>
<path style="fill:#44C4A1;" d="M129.031,202.742l-24.575-8.467c2.962-1.043,2.936-2.725-0.058-3.757l63.746-22.445
	c2.994,1.032,7.823,1.023,10.785-0.02l24.575,8.467c-2.962,1.043-2.936,2.725,0.058,3.757l-63.746,22.445
	C136.822,201.69,131.993,201.699,129.031,202.742z"/>
<g>
	<path style="fill:#3EA69B;" d="M164.996,181.519c7.785,2.682,9.164,6.593,3.08,8.735c-6.084,2.142-17.326,1.704-25.111-0.978
		c-7.785-2.682-9.164-6.593-3.08-8.735C145.968,178.399,157.211,178.837,164.996,181.519z"/>
	<path style="fill:#3EA69B;" d="M187.672,173.535c1.392,0.479,1.404,1.261,0.027,1.746c-1.377,0.485-3.621,0.489-5.012,0.009
		c-1.392-0.479-1.404-1.261-0.027-1.746C184.036,173.059,186.28,173.055,187.672,173.535z"/>
	<path style="fill:#3EA69B;" d="M125.273,195.505c1.392,0.479,1.404,1.261,0.027,1.746c-1.377,0.485-3.621,0.489-5.012,0.009
		c-1.392-0.479-1.404-1.261-0.027-1.746C121.638,195.03,123.882,195.026,125.273,195.505z"/>
</g>
<path style="fill:#44C4A1;" d="M164.737,189.518l-1.999-0.689c-2.731,0.784-5.949,1.223-9.65,1.318l-0.405-1.517
	c2.85-0.075,5.204-0.351,7.07-0.829l-5.314-1.831c-2.534,0.549-4.678,0.852-6.429,0.909c-1.752,0.057-3.417-0.187-4.996-0.731
	c-1.579-0.544-2.326-1.181-2.238-1.912c0.089-0.731,0.964-1.42,2.626-2.069l-1.37-0.472l1.733-0.61l1.396,0.481
	c2.134-0.649,4.696-1.074,7.69-1.276l0.758,1.488c-2.051,0.124-3.87,0.396-5.463,0.816l5.149,1.774l0.082-0.029
	c2.571-0.561,4.763-0.869,6.576-0.923c1.817-0.054,3.523,0.194,5.12,0.744c1.598,0.551,2.34,1.196,2.223,1.936
	c-0.115,0.741-1.047,1.45-2.799,2.131l1.971,0.679L164.737,189.518z M145.147,184.1c-0.051,0.304,0.232,0.561,0.843,0.771
	c0.612,0.211,1.276,0.314,1.993,0.309c0.716-0.004,1.746-0.128,3.087-0.371l-4.738-1.633
	C145.592,183.489,145.197,183.797,145.147,184.1z M162.86,186.23c0.086-0.322-0.19-0.594-0.83-0.814
	c-0.639-0.22-1.344-0.325-2.115-0.314c-0.774,0.011-1.865,0.151-3.277,0.419l4.929,1.698
	C162.344,186.883,162.773,186.553,162.86,186.23z"/>
<polygon style="fill:#31978C;" points="195.149,170.029 173.475,162.561 131.352,177.393 93.162,181.801 93.162,190.84 
	134.485,205.077 214.799,176.799 214.799,167.761 "/>
<polygon style="fill:#3EA69B;" points="173.475,153.523 93.162,181.801 134.485,196.039 214.799,167.761 "/>
<path style="fill:#44C4A1;" d="M129.031,192.125l-24.575-8.467c2.962-1.043,2.936-2.725-0.058-3.757l63.746-22.445
	c2.994,1.032,7.823,1.023,10.785-0.02l24.575,8.467c-2.962,1.043-2.936,2.725,0.058,3.757l-63.746,22.445
	C136.822,191.073,131.993,191.082,129.031,192.125z"/>
<g>
	<path style="fill:#3EA69B;" d="M164.996,170.903c7.785,2.682,9.164,6.593,3.08,8.735c-6.084,2.142-17.326,1.704-25.111-0.978
		c-7.785-2.682-9.164-6.593-3.08-8.735C145.968,167.782,157.211,168.22,164.996,170.903z"/>
	<path style="fill:#3EA69B;" d="M187.672,162.918c1.392,0.479,1.404,1.261,0.027,1.746c-1.377,0.485-3.621,0.489-5.012,0.009
		c-1.392-0.479-1.404-1.261-0.027-1.746S186.28,162.439,187.672,162.918z"/>
	<path style="fill:#3EA69B;" d="M125.273,184.889c1.392,0.479,1.404,1.261,0.027,1.746c-1.377,0.485-3.621,0.489-5.012,0.009
		c-1.392-0.479-1.404-1.261-0.027-1.746C121.638,184.413,123.882,184.409,125.273,184.889z"/>
</g>
<path style="fill:#44C4A1;" d="M164.737,178.902l-1.999-0.689c-2.731,0.784-5.949,1.223-9.65,1.318l-0.405-1.517
	c2.85-0.075,5.204-0.351,7.07-0.829l-5.314-1.831c-2.534,0.549-4.678,0.852-6.429,0.909c-1.752,0.057-3.417-0.187-4.996-0.731
	c-1.579-0.544-2.326-1.181-2.238-1.912c0.089-0.731,0.964-1.42,2.626-2.069l-1.37-0.472l1.733-0.61l1.396,0.481
	c2.134-0.649,4.696-1.074,7.69-1.276l0.758,1.488c-2.051,0.124-3.87,0.396-5.463,0.816l5.149,1.774l0.082-0.029
	c2.571-0.561,4.763-0.869,6.576-0.923c1.817-0.054,3.523,0.194,5.12,0.744c1.598,0.551,2.34,1.196,2.223,1.936
	c-0.115,0.741-1.047,1.45-2.799,2.131l1.971,0.679L164.737,178.902z M145.147,173.484c-0.051,0.304,0.232,0.561,0.843,0.771
	c0.612,0.211,1.276,0.314,1.993,0.309c0.716-0.004,1.746-0.128,3.087-0.371l-4.738-1.633
	C145.592,172.873,145.197,173.18,145.147,173.484z M162.86,175.614c0.086-0.322-0.19-0.594-0.83-0.814
	c-0.639-0.22-1.344-0.325-2.115-0.314c-0.774,0.011-1.865,0.151-3.277,0.419l4.929,1.698
	C162.344,176.267,162.773,175.937,162.86,175.614z"/>
<polygon style="fill:#31978C;" points="195.149,159.413 173.475,151.945 131.352,166.777 93.162,171.185 93.162,180.223 
	134.485,194.461 214.799,166.183 214.799,157.145 "/>
<polygon style="fill:#3EA69B;" points="173.475,142.907 93.162,171.185 134.485,185.423 214.799,157.145 "/>
<path style="fill:#44C4A1;" d="M129.031,181.509l-24.575-8.467c2.962-1.043,2.936-2.725-0.058-3.757l63.746-22.445
	c2.994,1.032,7.823,1.023,10.785-0.02l24.575,8.467c-2.962,1.043-2.936,2.725,0.058,3.757l-63.746,22.445
	C136.822,180.457,131.993,180.466,129.031,181.509z"/>
<g>
	<path style="fill:#3EA69B;" d="M164.996,160.286c7.785,2.682,9.164,6.593,3.08,8.735c-6.084,2.142-17.326,1.704-25.111-0.978
		c-7.785-2.682-9.164-6.593-3.08-8.735C145.968,157.166,157.211,157.604,164.996,160.286z"/>
	<path style="fill:#3EA69B;" d="M187.672,152.302c1.392,0.479,1.404,1.261,0.027,1.746c-1.377,0.485-3.621,0.489-5.012,0.009
		c-1.392-0.479-1.404-1.261-0.027-1.746S186.28,151.823,187.672,152.302z"/>
	<path style="fill:#3EA69B;" d="M125.273,174.272c1.392,0.479,1.404,1.261,0.027,1.746c-1.377,0.485-3.621,0.489-5.012,0.009
		c-1.392-0.479-1.404-1.261-0.027-1.746C121.638,173.797,123.882,173.793,125.273,174.272z"/>
</g>
<path style="fill:#44C4A1;" d="M164.737,168.286l-1.999-0.689c-2.731,0.784-5.949,1.223-9.65,1.318l-0.405-1.517
	c2.85-0.075,5.204-0.351,7.07-0.829l-5.314-1.831c-2.534,0.549-4.678,0.852-6.429,0.909c-1.752,0.057-3.417-0.187-4.996-0.731
	c-1.579-0.544-2.326-1.181-2.238-1.912c0.089-0.731,0.964-1.42,2.626-2.069l-1.37-0.472l1.733-0.61l1.396,0.481
	c2.134-0.649,4.696-1.074,7.69-1.276l0.758,1.488c-2.051,0.124-3.87,0.396-5.463,0.816l5.149,1.774l0.082-0.029
	c2.571-0.561,4.763-0.869,6.576-0.923c1.817-0.054,3.523,0.194,5.12,0.744c1.598,0.551,2.34,1.196,2.223,1.936
	c-0.115,0.741-1.047,1.45-2.799,2.131l1.971,0.679L164.737,168.286z M145.147,162.868c-0.051,0.304,0.232,0.561,0.843,0.771
	c0.612,0.211,1.276,0.314,1.993,0.309c0.716-0.004,1.746-0.128,3.087-0.371l-4.738-1.633
	C145.592,162.256,145.197,162.564,145.147,162.868z M162.86,164.997c0.086-0.322-0.19-0.594-0.83-0.814
	c-0.639-0.22-1.344-0.325-2.115-0.314c-0.774,0.012-1.865,0.151-3.277,0.419l4.929,1.698
	C162.344,165.65,162.773,165.32,162.86,164.997z"/>
<polygon style="fill:#FFFFFF;" points="165.214,174.603 165.214,226.12 183.691,219.615 183.691,168.098 "/>
<g>
	<polygon style="fill:#FCD462;" points="167.42,173.827 167.42,225.344 169.326,224.673 169.326,173.155 	"/>
	<polygon style="fill:#FCD462;" points="179.579,169.545 179.579,221.063 181.486,220.391 181.486,168.874 	"/>
</g>
<path style="fill:#F6C358;" d="M181.663,243.314c0,3.649-7.035,6.606-15.713,6.606c-8.678,0-15.713-2.958-15.713-6.606v-5.404
	h31.425V243.314z"/>
<ellipse style="fill:#FCD462;" cx="165.949" cy="237.926" rx="15.713" ry="6.605"/>
<g>
	<path style="fill:#DC8744;" d="M165.95,232.594c-7.574,0-13.713,2.38-13.713,5.316c0,2.936,6.14,5.316,13.713,5.316
		c7.574,0,13.713-2.38,13.713-5.316C179.664,234.974,173.524,232.594,165.95,232.594z M165.95,242.635
		c-6.732,0-12.19-2.116-12.19-4.725c0-2.61,5.458-4.725,12.19-4.725c6.732,0,12.189,2.116,12.189,4.725
		C178.14,240.52,172.682,242.635,165.95,242.635z"/>
	<path style="fill:#DC8744;" d="M165.448,241.582v-0.647c-2.089-0.083-3.964-0.404-5.623-0.965l1.668-0.771
		c1.28,0.431,2.596,0.688,3.954,0.771v-1.719c-1.722-0.159-2.983-0.369-3.783-0.629c-0.8-0.26-1.2-0.645-1.2-1.156
		s0.459-0.929,1.382-1.254c0.923-0.325,2.122-0.502,3.601-0.531v-0.443h1.462v0.452c1.676,0.048,3.26,0.269,4.754,0.665
		l-1.486,0.815c-1.006-0.278-2.094-0.449-3.268-0.514v1.666h0.069c1.752,0.16,3.039,0.375,3.861,0.647
		c0.824,0.272,1.235,0.666,1.235,1.183c0,0.517-0.472,0.938-1.417,1.263c-0.945,0.325-2.193,0.502-3.748,0.532v0.638H165.448z
		 M163.836,235.864c-0.389,0.133-0.582,0.298-0.582,0.496c0,0.198,0.153,0.354,0.458,0.469c0.303,0.115,0.883,0.226,1.737,0.332
		v-1.533C164.762,235.652,164.224,235.731,163.836,235.864z M168.647,239.749c0.426-0.136,0.64-0.307,0.64-0.514
		c0-0.207-0.167-0.371-0.502-0.492c-0.337-0.121-0.962-0.235-1.875-0.341v1.595C167.641,239.967,168.219,239.884,168.647,239.749z"
		/>
</g>
<path style="fill:#F6C358;" d="M181.663,236.751c0,3.649-7.035,6.606-15.713,6.606c-8.678,0-15.713-2.958-15.713-6.606v-5.404
	h31.425V236.751z"/>
<ellipse style="fill:#FCD462;" cx="165.949" cy="231.322" rx="15.713" ry="6.605"/>
<g>
	<path style="fill:#DC8744;" d="M165.95,226.031c-7.574,0-13.713,2.38-13.713,5.316s6.14,5.316,13.713,5.316
		c7.574,0,13.713-2.38,13.713-5.316S173.524,226.031,165.95,226.031z M165.95,236.072c-6.732,0-12.19-2.116-12.19-4.725
		c0-2.61,5.458-4.725,12.19-4.725c6.732,0,12.189,2.116,12.189,4.725C178.14,233.956,172.682,236.072,165.95,236.072z"/>
	<path style="fill:#DC8744;" d="M165.448,235.019v-0.647c-2.089-0.083-3.964-0.404-5.623-0.965l1.668-0.771
		c1.28,0.431,2.596,0.688,3.954,0.771v-1.719c-1.722-0.159-2.983-0.369-3.783-0.629c-0.8-0.26-1.2-0.645-1.2-1.156
		c0-0.511,0.459-0.929,1.382-1.254c0.923-0.325,2.122-0.502,3.601-0.531v-0.443h1.462v0.452c1.676,0.048,3.26,0.269,4.754,0.665
		l-1.486,0.815c-1.006-0.278-2.094-0.449-3.268-0.514v1.666h0.069c1.752,0.16,3.039,0.375,3.861,0.647
		c0.824,0.272,1.235,0.666,1.235,1.183c0,0.517-0.472,0.938-1.417,1.262c-0.945,0.325-2.193,0.502-3.748,0.532v0.638H165.448z
		 M163.836,229.3c-0.389,0.133-0.582,0.298-0.582,0.496c0,0.198,0.153,0.354,0.458,0.469c0.303,0.115,0.883,0.226,1.737,0.332
		v-1.533C164.762,229.089,164.224,229.167,163.836,229.3z M168.647,233.185c0.426-0.136,0.64-0.307,0.64-0.514
		c0-0.207-0.167-0.371-0.502-0.492c-0.337-0.121-0.962-0.235-1.875-0.341v1.595C167.641,233.404,168.219,233.321,168.647,233.185z"
		/>
</g>
<path style="fill:#F6C358;" d="M181.663,230.188c0,3.649-7.035,6.606-15.713,6.606c-8.678,0-15.713-2.958-15.713-6.606v-5.404
	h31.425V230.188z"/>
<ellipse style="fill:#FCD462;" cx="165.949" cy="224.783" rx="15.713" ry="6.605"/>
<g>
	<path style="fill:#DC8744;" d="M165.95,219.467c-7.574,0-13.713,2.38-13.713,5.316c0,2.936,6.14,5.316,13.713,5.316
		c7.574,0,13.713-2.38,13.713-5.316C179.664,221.847,173.524,219.467,165.95,219.467z M165.95,229.509
		c-6.732,0-12.19-2.116-12.19-4.725c0-2.61,5.458-4.725,12.19-4.725c6.732,0,12.189,2.116,12.189,4.725
		C178.14,227.393,172.682,229.509,165.95,229.509z"/>
	<path style="fill:#DC8744;" d="M165.448,228.456v-0.647c-2.089-0.083-3.964-0.404-5.623-0.965l1.668-0.771
		c1.28,0.431,2.596,0.688,3.954,0.771v-1.719c-1.722-0.159-2.983-0.369-3.783-0.629c-0.8-0.26-1.2-0.645-1.2-1.156
		s0.459-0.929,1.382-1.254c0.923-0.325,2.122-0.502,3.601-0.531v-0.443h1.462v0.452c1.676,0.048,3.26,0.269,4.754,0.665
		l-1.486,0.815c-1.006-0.278-2.094-0.449-3.268-0.514v1.666h0.069c1.752,0.16,3.039,0.375,3.861,0.647
		c0.824,0.272,1.235,0.666,1.235,1.183c0,0.517-0.472,0.938-1.417,1.262c-0.945,0.325-2.193,0.502-3.748,0.532v0.638H165.448z
		 M163.836,222.737c-0.389,0.133-0.582,0.298-0.582,0.496s0.153,0.354,0.458,0.469c0.303,0.115,0.883,0.226,1.737,0.332v-1.533
		C164.762,222.526,164.224,222.604,163.836,222.737z M168.647,226.622c0.426-0.136,0.64-0.307,0.64-0.514
		c0-0.207-0.167-0.371-0.502-0.492c-0.337-0.121-0.962-0.235-1.875-0.341v1.595C167.641,226.841,168.219,226.758,168.647,226.622z"
		/>
</g>
<path style="fill:#F6C358;" d="M181.663,223.624c0,3.649-7.035,6.606-15.713,6.606c-8.678,0-15.713-2.958-15.713-6.606v-5.404
	h31.425V223.624z"/>
<ellipse style="fill:#FCD462;" cx="165.949" cy="218.219" rx="15.713" ry="6.605"/>
<g>
	<path style="fill:#DC8744;" d="M165.95,212.904c-7.574,0-13.713,2.38-13.713,5.316s6.14,5.316,13.713,5.316
		c7.574,0,13.713-2.38,13.713-5.316S173.524,212.904,165.95,212.904z M165.95,222.945c-6.732,0-12.19-2.116-12.19-4.725
		c0-2.61,5.458-4.725,12.19-4.725c6.732,0,12.189,2.116,12.189,4.725C178.14,220.83,172.682,222.945,165.95,222.945z"/>
	<path style="fill:#DC8744;" d="M165.448,221.892v-0.647c-2.089-0.083-3.964-0.404-5.623-0.965l1.668-0.771
		c1.28,0.431,2.596,0.688,3.954,0.771v-1.719c-1.722-0.159-2.983-0.369-3.783-0.629c-0.8-0.26-1.2-0.645-1.2-1.156
		c0-0.511,0.459-0.929,1.382-1.254c0.923-0.325,2.122-0.502,3.601-0.531v-0.443h1.462v0.452c1.676,0.048,3.26,0.269,4.754,0.665
		l-1.486,0.815c-1.006-0.278-2.094-0.449-3.268-0.514v1.666h0.069c1.752,0.16,3.039,0.375,3.861,0.647
		c0.824,0.272,1.235,0.666,1.235,1.183c0,0.517-0.472,0.938-1.417,1.262c-0.945,0.325-2.193,0.502-3.748,0.532v0.638H165.448z
		 M163.836,216.174c-0.389,0.133-0.582,0.298-0.582,0.496c0,0.198,0.153,0.354,0.458,0.469c0.303,0.115,0.883,0.226,1.737,0.332
		v-1.533C164.762,215.962,164.224,216.04,163.836,216.174z M168.647,220.058c0.426-0.136,0.64-0.307,0.64-0.514
		c0-0.207-0.167-0.371-0.502-0.492c-0.337-0.121-0.962-0.235-1.875-0.341v1.595C167.641,220.277,168.219,220.194,168.647,220.058z"
		/>
</g>
<path style="fill:#F6C358;" d="M181.663,217.061c0,3.649-7.035,6.606-15.713,6.606c-8.678,0-15.713-2.958-15.713-6.606v-5.404
	h31.425V217.061z"/>
<ellipse style="fill:#FCD462;" cx="165.949" cy="211.661" rx="15.713" ry="6.605"/>
<g>
	<path style="fill:#DC8744;" d="M165.95,206.341c-7.574,0-13.713,2.38-13.713,5.316c0,2.936,6.14,5.316,13.713,5.316
		c7.574,0,13.713-2.38,13.713-5.316C179.664,208.721,173.524,206.341,165.95,206.341z M165.95,216.382
		c-6.732,0-12.19-2.116-12.19-4.725c0-2.61,5.458-4.725,12.19-4.725c6.732,0,12.189,2.116,12.189,4.725
		C178.14,214.266,172.682,216.382,165.95,216.382z"/>
	<path style="fill:#DC8744;" d="M165.448,215.329v-0.647c-2.089-0.083-3.964-0.404-5.623-0.965l1.668-0.771
		c1.28,0.431,2.596,0.688,3.954,0.771v-1.719c-1.722-0.159-2.983-0.369-3.783-0.629c-0.8-0.26-1.2-0.645-1.2-1.156
		s0.459-0.929,1.382-1.254c0.923-0.325,2.122-0.502,3.601-0.531v-0.443h1.462v0.452c1.676,0.048,3.26,0.269,4.754,0.665
		l-1.486,0.815c-1.006-0.278-2.094-0.449-3.268-0.514v1.666h0.069c1.752,0.16,3.039,0.375,3.861,0.647
		c0.824,0.272,1.235,0.666,1.235,1.183c0,0.517-0.472,0.938-1.417,1.262c-0.945,0.325-2.193,0.502-3.748,0.532v0.638H165.448z
		 M163.836,209.61c-0.389,0.133-0.582,0.298-0.582,0.496s0.153,0.354,0.458,0.469c0.303,0.115,0.883,0.226,1.737,0.332v-1.533
		C164.762,209.399,164.224,209.477,163.836,209.61z M168.647,213.495c0.426-0.136,0.64-0.307,0.64-0.514
		c0-0.207-0.167-0.371-0.502-0.492c-0.337-0.121-0.962-0.235-1.875-0.341v1.595C167.641,213.714,168.219,213.631,168.647,213.495z"
		/>
</g>
<path style="fill:#F6C358;" d="M181.663,210.497c0,3.649-7.035,6.606-15.713,6.606c-8.678,0-15.713-2.958-15.713-6.606v-5.404
	h31.425V210.497z"/>
<ellipse style="fill:#FCD462;" cx="165.949" cy="205.107" rx="15.713" ry="6.605"/>
<g>
	<path style="fill:#DC8744;" d="M165.95,199.777c-7.574,0-13.713,2.38-13.713,5.316c0,2.936,6.14,5.316,13.713,5.316
		c7.574,0,13.713-2.38,13.713-5.316C179.664,202.157,173.524,199.777,165.95,199.777z M165.95,209.818
		c-6.732,0-12.19-2.116-12.19-4.725c0-2.61,5.458-4.725,12.19-4.725c6.732,0,12.189,2.116,12.189,4.725
		C178.14,207.703,172.682,209.818,165.95,209.818z"/>
	<path style="fill:#DC8744;" d="M165.448,208.765v-0.647c-2.089-0.083-3.964-0.404-5.623-0.965l1.668-0.771
		c1.28,0.431,2.596,0.688,3.954,0.771v-1.719c-1.722-0.159-2.983-0.369-3.783-0.629s-1.2-0.645-1.2-1.156
		c0-0.511,0.459-0.929,1.382-1.254c0.923-0.325,2.122-0.502,3.601-0.531v-0.443h1.462v0.452c1.676,0.048,3.26,0.269,4.754,0.665
		l-1.486,0.815c-1.006-0.278-2.094-0.449-3.268-0.514v1.666h0.069c1.752,0.16,3.039,0.375,3.861,0.647
		c0.824,0.272,1.235,0.666,1.235,1.183c0,0.517-0.472,0.938-1.417,1.262c-0.945,0.325-2.193,0.502-3.748,0.532v0.638H165.448z
		 M163.836,203.047c-0.389,0.133-0.582,0.298-0.582,0.496c0,0.198,0.153,0.354,0.458,0.469c0.303,0.115,0.883,0.226,1.737,0.332
		v-1.533C164.762,202.835,164.224,202.914,163.836,203.047z M168.647,206.931c0.426-0.136,0.64-0.307,0.64-0.514
		c0-0.207-0.167-0.371-0.502-0.492c-0.337-0.121-0.962-0.235-1.875-0.341v1.595C167.641,207.15,168.219,207.067,168.647,206.931z"/>
</g>
<path style="fill:#F6C358;" d="M181.663,203.934c0,3.649-7.035,6.606-15.713,6.606c-8.678,0-15.713-2.958-15.713-6.606v-5.404
	h31.425V203.934z"/>
<ellipse style="fill:#FCD462;" cx="165.949" cy="198.528" rx="15.713" ry="6.605"/>
<g>
	<path style="fill:#DC8744;" d="M165.95,193.214c-7.574,0-13.713,2.38-13.713,5.316c0,2.936,6.14,5.316,13.713,5.316
		c7.574,0,13.713-2.38,13.713-5.316C179.664,195.594,173.524,193.214,165.95,193.214z M165.95,203.255
		c-6.732,0-12.19-2.116-12.19-4.725c0-2.61,5.458-4.725,12.19-4.725c6.732,0,12.189,2.116,12.189,4.725
		C178.14,201.139,172.682,203.255,165.95,203.255z"/>
	<path style="fill:#DC8744;" d="M165.448,202.202v-0.647c-2.089-0.083-3.964-0.404-5.623-0.965l1.668-0.771
		c1.28,0.431,2.596,0.688,3.954,0.771v-1.719c-1.722-0.159-2.983-0.369-3.783-0.629c-0.8-0.26-1.2-0.645-1.2-1.156
		s0.459-0.929,1.382-1.254c0.923-0.325,2.122-0.502,3.601-0.531v-0.443h1.462v0.452c1.676,0.048,3.26,0.269,4.754,0.665
		l-1.486,0.815c-1.006-0.278-2.094-0.449-3.268-0.514v1.666h0.069c1.752,0.16,3.039,0.375,3.861,0.647
		c0.824,0.272,1.235,0.666,1.235,1.183c0,0.517-0.472,0.938-1.417,1.262c-0.945,0.325-2.193,0.502-3.748,0.532v0.638H165.448z
		 M163.836,196.483c-0.389,0.133-0.582,0.298-0.582,0.496s0.153,0.354,0.458,0.469c0.303,0.115,0.883,0.226,1.737,0.332v-1.533
		C164.762,196.272,164.224,196.35,163.836,196.483z M168.647,200.368c0.426-0.136,0.64-0.307,0.64-0.514
		c0-0.207-0.167-0.371-0.502-0.492c-0.337-0.121-0.962-0.235-1.875-0.341v1.595C167.641,200.587,168.219,200.504,168.647,200.368z"
		/>
</g>
<path style="fill:#F6C358;" d="M181.663,197.371c0,3.649-7.035,6.606-15.713,6.606c-8.678,0-15.713-2.958-15.713-6.606v-5.404
	h31.425V197.371z"/>
<ellipse style="fill:#FCD462;" cx="165.949" cy="191.964" rx="15.713" ry="6.605"/>
<g>
	<path style="fill:#DC8744;" d="M165.95,186.65c-7.574,0-13.713,2.38-13.713,5.316c0,2.936,6.14,5.316,13.713,5.316
		c7.574,0,13.713-2.38,13.713-5.316C179.664,189.03,173.524,186.65,165.95,186.65z M165.95,196.692
		c-6.732,0-12.19-2.116-12.19-4.725c0-2.61,5.458-4.725,12.19-4.725c6.732,0,12.189,2.116,12.189,4.725
		C178.14,194.576,172.682,196.692,165.95,196.692z"/>
	<path style="fill:#DC8744;" d="M165.448,195.639v-0.647c-2.089-0.083-3.964-0.404-5.623-0.965l1.668-0.771
		c1.28,0.431,2.596,0.688,3.954,0.771v-1.719c-1.722-0.159-2.983-0.369-3.783-0.629s-1.2-0.645-1.2-1.156
		c0-0.511,0.459-0.929,1.382-1.254c0.923-0.325,2.122-0.502,3.601-0.531v-0.443h1.462v0.452c1.676,0.048,3.26,0.269,4.754,0.665
		l-1.486,0.815c-1.006-0.278-2.094-0.449-3.268-0.514v1.666h0.069c1.752,0.16,3.039,0.375,3.861,0.647
		c0.824,0.272,1.235,0.666,1.235,1.183c0,0.517-0.472,0.938-1.417,1.262c-0.945,0.325-2.193,0.502-3.748,0.532v0.638H165.448z
		 M163.836,189.92c-0.389,0.133-0.582,0.298-0.582,0.496s0.153,0.354,0.458,0.469c0.303,0.115,0.883,0.226,1.737,0.332v-1.533
		C164.762,189.709,164.224,189.787,163.836,189.92z M168.647,193.805c0.426-0.136,0.64-0.307,0.64-0.514
		c0-0.207-0.167-0.371-0.502-0.492c-0.337-0.121-0.962-0.235-1.875-0.341v1.595C167.641,194.023,168.219,193.941,168.647,193.805z"
		/>
</g>
<path style="fill:#F6C358;" d="M214.799,243.314c0,3.649-7.035,6.606-15.713,6.606c-8.678,0-15.713-2.958-15.713-6.606v-5.404
	h31.425V243.314z"/>
<ellipse style="fill:#FCD462;" cx="199.086" cy="237.926" rx="15.713" ry="6.605"/>
<g>
	<path style="fill:#DC8744;" d="M199.086,232.594c-7.574,0-13.713,2.38-13.713,5.316c0,2.936,6.14,5.316,13.713,5.316
		c7.574,0,13.713-2.38,13.713-5.316C212.799,234.974,206.659,232.594,199.086,232.594z M199.086,242.635
		c-6.732,0-12.189-2.116-12.189-4.725c0-2.61,5.458-4.725,12.189-4.725c6.732,0,12.189,2.116,12.189,4.725
		C211.275,240.52,205.818,242.635,199.086,242.635z"/>
	<path style="fill:#DC8744;" d="M198.584,241.582v-0.647c-2.089-0.083-3.964-0.404-5.623-0.965l1.668-0.771
		c1.28,0.431,2.596,0.688,3.954,0.771v-1.719c-1.722-0.159-2.983-0.369-3.783-0.629c-0.8-0.26-1.2-0.645-1.2-1.156
		s0.459-0.929,1.382-1.254c0.923-0.325,2.122-0.502,3.601-0.531v-0.443h1.462v0.452c1.676,0.048,3.26,0.269,4.754,0.665
		l-1.486,0.815c-1.006-0.278-2.094-0.449-3.268-0.514v1.666h0.069c1.752,0.16,3.039,0.375,3.861,0.647
		c0.824,0.272,1.235,0.666,1.235,1.183c0,0.517-0.472,0.938-1.417,1.263c-0.945,0.325-2.193,0.502-3.748,0.532v0.638H198.584z
		 M196.971,235.864c-0.389,0.133-0.582,0.298-0.582,0.496c0,0.198,0.153,0.354,0.458,0.469c0.303,0.115,0.883,0.226,1.737,0.332
		v-1.533C197.897,235.652,197.36,235.731,196.971,235.864z M201.783,239.749c0.426-0.136,0.64-0.307,0.64-0.514
		c0-0.207-0.167-0.371-0.502-0.492c-0.337-0.121-0.962-0.235-1.875-0.341v1.595C200.777,239.967,201.355,239.884,201.783,239.749z"
		/>
</g>
<path style="fill:#F6C358;" d="M214.799,236.751c0,3.649-7.035,6.606-15.713,6.606c-8.678,0-15.713-2.958-15.713-6.606v-5.404
	h31.425V236.751z"/>
<ellipse style="fill:#FCD462;" cx="199.086" cy="231.322" rx="15.713" ry="6.605"/>
<g>
	<path style="fill:#DC8744;" d="M199.086,226.031c-7.574,0-13.713,2.38-13.713,5.316s6.14,5.316,13.713,5.316
		c7.574,0,13.713-2.38,13.713-5.316S206.659,226.031,199.086,226.031z M199.086,236.072c-6.732,0-12.189-2.116-12.189-4.725
		c0-2.61,5.458-4.725,12.189-4.725c6.732,0,12.189,2.116,12.189,4.725C211.275,233.956,205.818,236.072,199.086,236.072z"/>
	<path style="fill:#DC8744;" d="M198.584,235.019v-0.647c-2.089-0.083-3.964-0.404-5.623-0.965l1.668-0.771
		c1.28,0.431,2.596,0.688,3.954,0.771v-1.719c-1.722-0.159-2.983-0.369-3.783-0.629c-0.8-0.26-1.2-0.645-1.2-1.156
		c0-0.511,0.459-0.929,1.382-1.254c0.923-0.325,2.122-0.502,3.601-0.531v-0.443h1.462v0.452c1.676,0.048,3.26,0.269,4.754,0.665
		l-1.486,0.815c-1.006-0.278-2.094-0.449-3.268-0.514v1.666h0.069c1.752,0.16,3.039,0.375,3.861,0.647
		c0.824,0.272,1.235,0.666,1.235,1.183c0,0.517-0.472,0.938-1.417,1.262c-0.945,0.325-2.193,0.502-3.748,0.532v0.638H198.584z
		 M196.971,229.3c-0.389,0.133-0.582,0.298-0.582,0.496c0,0.198,0.153,0.354,0.458,0.469c0.303,0.115,0.883,0.226,1.737,0.332
		v-1.533C197.897,229.089,197.36,229.167,196.971,229.3z M201.783,233.185c0.426-0.136,0.64-0.307,0.64-0.514
		c0-0.207-0.167-0.371-0.502-0.492c-0.337-0.121-0.962-0.235-1.875-0.341v1.595C200.777,233.404,201.355,233.321,201.783,233.185z"
		/>
</g>
<path style="fill:#F6C358;" d="M214.799,230.188c0,3.649-7.035,6.606-15.713,6.606c-8.678,0-15.713-2.958-15.713-6.606v-5.404
	h31.425V230.188z"/>
<ellipse style="fill:#FCD462;" cx="199.086" cy="224.783" rx="15.713" ry="6.605"/>
<g>
	<path style="fill:#DC8744;" d="M199.086,219.467c-7.574,0-13.713,2.38-13.713,5.316c0,2.936,6.14,5.316,13.713,5.316
		c7.574,0,13.713-2.38,13.713-5.316C212.799,221.847,206.659,219.467,199.086,219.467z M199.086,229.509
		c-6.732,0-12.189-2.116-12.189-4.725c0-2.61,5.458-4.725,12.189-4.725c6.732,0,12.189,2.116,12.189,4.725
		C211.275,227.393,205.818,229.509,199.086,229.509z"/>
	<path style="fill:#DC8744;" d="M198.584,228.456v-0.647c-2.089-0.083-3.964-0.404-5.623-0.965l1.668-0.771
		c1.28,0.431,2.596,0.688,3.954,0.771v-1.719c-1.722-0.159-2.983-0.369-3.783-0.629c-0.8-0.26-1.2-0.645-1.2-1.156
		s0.459-0.929,1.382-1.254c0.923-0.325,2.122-0.502,3.601-0.531v-0.443h1.462v0.452c1.676,0.048,3.26,0.269,4.754,0.665
		l-1.486,0.815c-1.006-0.278-2.094-0.449-3.268-0.514v1.666h0.069c1.752,0.16,3.039,0.375,3.861,0.647
		c0.824,0.272,1.235,0.666,1.235,1.183c0,0.517-0.472,0.938-1.417,1.262c-0.945,0.325-2.193,0.502-3.748,0.532v0.638H198.584z
		 M196.971,222.737c-0.389,0.133-0.582,0.298-0.582,0.496s0.153,0.354,0.458,0.469c0.303,0.115,0.883,0.226,1.737,0.332v-1.533
		C197.897,222.526,197.36,222.604,196.971,222.737z M201.783,226.622c0.426-0.136,0.64-0.307,0.64-0.514
		c0-0.207-0.167-0.371-0.502-0.492c-0.337-0.121-0.962-0.235-1.875-0.341v1.595C200.777,226.841,201.355,226.758,201.783,226.622z"
		/>
</g>
<path style="fill:#F6C358;" d="M214.799,223.624c0,3.649-7.035,6.606-15.713,6.606c-8.678,0-15.713-2.958-15.713-6.606v-5.404
	h31.425V223.624z"/>
<ellipse style="fill:#FCD462;" cx="199.086" cy="218.219" rx="15.713" ry="6.605"/>
<g>
	<path style="fill:#DC8744;" d="M199.086,212.904c-7.574,0-13.713,2.38-13.713,5.316s6.14,5.316,13.713,5.316
		c7.574,0,13.713-2.38,13.713-5.316S206.659,212.904,199.086,212.904z M199.086,222.945c-6.732,0-12.189-2.116-12.189-4.725
		c0-2.61,5.458-4.725,12.189-4.725c6.732,0,12.189,2.116,12.189,4.725C211.275,220.83,205.818,222.945,199.086,222.945z"/>
	<path style="fill:#DC8744;" d="M198.584,221.892v-0.647c-2.089-0.083-3.964-0.404-5.623-0.965l1.668-0.771
		c1.28,0.431,2.596,0.688,3.954,0.771v-1.719c-1.722-0.159-2.983-0.369-3.783-0.629c-0.8-0.26-1.2-0.645-1.2-1.156
		c0-0.511,0.459-0.929,1.382-1.254c0.923-0.325,2.122-0.502,3.601-0.531v-0.443h1.462v0.452c1.676,0.048,3.26,0.269,4.754,0.665
		l-1.486,0.815c-1.006-0.278-2.094-0.449-3.268-0.514v1.666h0.069c1.752,0.16,3.039,0.375,3.861,0.647
		c0.824,0.272,1.235,0.666,1.235,1.183c0,0.517-0.472,0.938-1.417,1.262c-0.945,0.325-2.193,0.502-3.748,0.532v0.638H198.584z
		 M196.971,216.174c-0.389,0.133-0.582,0.298-0.582,0.496c0,0.198,0.153,0.354,0.458,0.469c0.303,0.115,0.883,0.226,1.737,0.332
		v-1.533C197.897,215.962,197.36,216.04,196.971,216.174z M201.783,220.058c0.426-0.136,0.64-0.307,0.64-0.514
		c0-0.207-0.167-0.371-0.502-0.492c-0.337-0.121-0.962-0.235-1.875-0.341v1.595C200.777,220.277,201.355,220.194,201.783,220.058z"
		/>
</g>
<path style="fill:#F6C358;" d="M214.799,217.061c0,3.649-7.035,6.606-15.713,6.606c-8.678,0-15.713-2.958-15.713-6.606v-5.404
	h31.425V217.061z"/>
<ellipse style="fill:#FCD462;" cx="199.086" cy="211.661" rx="15.713" ry="6.605"/>
<g>
	<path style="fill:#DC8744;" d="M199.086,206.341c-7.574,0-13.713,2.38-13.713,5.316c0,2.936,6.14,5.316,13.713,5.316
		c7.574,0,13.713-2.38,13.713-5.316C212.799,208.721,206.659,206.341,199.086,206.341z M199.086,216.382
		c-6.732,0-12.189-2.116-12.189-4.725c0-2.61,5.458-4.725,12.189-4.725c6.732,0,12.189,2.116,12.189,4.725
		C211.275,214.266,205.818,216.382,199.086,216.382z"/>
	<path style="fill:#DC8744;" d="M198.584,215.329v-0.647c-2.089-0.083-3.964-0.404-5.623-0.965l1.668-0.771
		c1.28,0.431,2.596,0.688,3.954,0.771v-1.719c-1.722-0.159-2.983-0.369-3.783-0.629c-0.8-0.26-1.2-0.645-1.2-1.156
		s0.459-0.929,1.382-1.254c0.923-0.325,2.122-0.502,3.601-0.531v-0.443h1.462v0.452c1.676,0.048,3.26,0.269,4.754,0.665
		l-1.486,0.815c-1.006-0.278-2.094-0.449-3.268-0.514v1.666h0.069c1.752,0.16,3.039,0.375,3.861,0.647
		c0.824,0.272,1.235,0.666,1.235,1.183c0,0.517-0.472,0.938-1.417,1.262c-0.945,0.325-2.193,0.502-3.748,0.532v0.638H198.584z
		 M196.971,209.61c-0.389,0.133-0.582,0.298-0.582,0.496s0.153,0.354,0.458,0.469c0.303,0.115,0.883,0.226,1.737,0.332v-1.533
		C197.897,209.399,197.36,209.477,196.971,209.61z M201.783,213.495c0.426-0.136,0.64-0.307,0.64-0.514
		c0-0.207-0.167-0.371-0.502-0.492c-0.337-0.121-0.962-0.235-1.875-0.341v1.595C200.777,213.714,201.355,213.631,201.783,213.495z"
		/>
</g>
<circle style="fill:#FCD462;" cx="171.259" cy="232.602" r="17.295"/>
<g>
	<path style="fill:#DC8744;" d="M171.258,217.53c-8.337,0-15.095,6.758-15.095,15.095c0,8.337,6.758,15.095,15.095,15.095
		c8.337,0,15.095-6.758,15.095-15.095C186.353,224.288,179.595,217.53,171.258,217.53z M171.258,246.043
		c-7.41,0-13.418-6.007-13.418-13.418c0-7.41,6.007-13.418,13.418-13.418c7.41,0,13.418,6.007,13.418,13.418
		C184.676,240.035,178.668,246.043,171.258,246.043z"/>
	<path style="fill:#DC8744;" d="M170.705,243.053v-1.836c-2.299-0.234-4.363-1.149-6.189-2.741l1.836-2.189
		c1.409,1.224,2.858,1.953,4.353,2.189v-4.881c-1.896-0.452-3.284-1.048-4.164-1.786c-0.88-0.738-1.321-1.832-1.321-3.283
		c0-1.451,0.506-2.637,1.521-3.56c1.015-0.922,2.336-1.425,3.964-1.509v-1.258h1.609v1.283c1.845,0.135,3.589,0.764,5.233,1.888
		l-1.636,2.315c-1.108-0.788-2.305-1.274-3.597-1.46v4.729h0.076c1.929,0.453,3.345,1.066,4.25,1.836
		c0.907,0.772,1.359,1.892,1.359,3.359c0,1.468-0.52,2.664-1.56,3.585c-1.04,0.923-2.414,1.426-4.125,1.51v1.811H170.705z
		 M168.93,226.814c-0.428,0.377-0.641,0.847-0.641,1.409c0,0.562,0.168,1.006,0.504,1.333c0.334,0.328,0.972,0.642,1.912,0.944
		v-4.353C169.95,226.214,169.358,226.436,168.93,226.814z M174.226,237.845c0.469-0.385,0.704-0.871,0.704-1.459
		c0-0.587-0.184-1.052-0.553-1.396c-0.371-0.344-1.058-0.666-2.064-0.968v4.528C173.119,238.466,173.756,238.231,174.226,237.845z"
		/>
</g>
<g>
	<rect x="240.64" y="177.597" style="fill:#EBF0F3;" width="41.912" height="8.904"/>
	<rect x="240.64" y="206.336" style="fill:#EBF0F3;" width="41.912" height="8.904"/>
</g>
<g>
</g>
<g>
</g>
<g>
</g>
<g>
</g>
<g>
</g>
<g>
</g>
<g>
</g>
<g>
</g>
<g>
</g>
<g>
</g>
<g>
</g>
<g>
</g>
<g>
</g>
<g>
</g>
<g>
</g>
</svg>
