<svg width="512" height="320" viewBox="0 0 512 320" fill="none" xmlns="http://www.w3.org/2000/svg">
<path d="M359.93 63.952V295.988C359.93 304.792 367.122 311.996 375.931 311.996H488.022C496.743 311.996 504.023 304.792 504.023 295.988V63.952H359.93Z" fill="#545C66"/>
<path d="M432.017 127.984C440.817 127.984 448.018 135.188 448.018 143.992C448.018 152.876 440.817 160 432.017 160C423.136 160 416.015 152.876 416.015 143.992C416.015 135.188 423.136 127.984 432.017 127.984Z" fill="#5D9CEC"/>
<path d="M504.023 24.012V39.94H359.93V24.012C359.93 15.2076 367.122 8.00403 375.931 8.00403H488.022C496.743 8.00403 504.023 15.2076 504.023 24.012V24.012Z" fill="#545C66"/>
<path d="M359.93 39.9399H504.023V63.9519H359.93V39.9399Z" fill="#656D78"/>
<path d="M119.907 287.984H215.916H231.918C240.719 287.984 247.919 295.108 247.919 303.992V311.996H87.9043V303.992C87.9043 295.108 95.097 287.984 103.906 287.984H119.907Z" fill="#E6E9ED"/>
<path d="M207.916 255.968L215.916 287.984H119.907L127.908 255.968H207.916Z" fill="#CCD1D9"/>
<path d="M8.37611 223.952H327.846V239.96C327.846 248.764 320.645 255.968 311.845 255.968H279.762H207.915H127.907H23.9776C15.1768 255.968 7.97607 248.764 7.97607 239.96V223.952H8.37611Z" fill="#E6E9ED"/>
<path d="M327.846 24.012V223.952H8.37611H7.97607V24.012C7.97607 15.2076 15.1768 8.00403 23.9776 8.00403H311.845C320.645 8.00403 327.846 15.2076 327.846 24.012V24.012Z" fill="#5D9CEC"/>
<path d="M195.97 223.952H155.967L123.932 8.00403H163.935L195.97 223.952Z" fill="#87BCF4"/>
<path d="M211.988 223.952H204.019L171.984 8.00403H179.953L211.988 223.952Z" fill="#87BCF4"/>
<path d="M168.168 247.996C163.744 247.996 160.127 244.418 160.127 239.992C160.127 235.566 163.664 231.988 168.08 231.988H168.168C172.585 231.988 176.169 235.566 176.169 239.992C176.169 244.418 172.585 247.996 168.168 247.996Z" fill="black"/>
<path d="M327.855 231.988H8.37673C3.95231 231.988 0.375977 228.41 0.375977 223.984C0.375977 219.558 3.95231 215.98 8.37673 215.98H327.863C332.287 215.98 335.863 219.558 335.863 223.984C335.863 228.41 332.279 231.988 327.855 231.988V231.988Z" fill="black"/>
<path d="M311.853 264.004H24.0023C10.769 264.004 0 253.231 0 239.992V24.012C0 10.7734 10.769 0 24.0023 0H311.861C325.095 0 335.864 10.7734 335.864 24.012V239.992C335.856 253.231 325.095 264.004 311.853 264.004ZM24.0023 16.008C19.5858 16.008 16.0015 19.5938 16.0015 24.012V239.992C16.0015 244.41 19.5858 247.996 24.0023 247.996H311.861C316.278 247.996 319.862 244.41 319.862 239.992V24.012C319.862 19.5938 316.278 16.008 311.861 16.008H24.0023Z" fill="black"/>
<path d="M119.955 295.988C119.315 295.988 118.659 295.908 118.011 295.748C113.723 294.675 111.115 290.329 112.187 286.047L120.179 254.063C121.251 249.765 125.588 247.139 129.876 248.236C134.165 249.309 136.773 253.655 135.701 257.937L127.708 289.921C126.804 293.571 123.54 295.988 119.955 295.988V295.988Z" fill="black"/>
<path d="M215.9 295.988C212.316 295.988 209.059 293.563 208.147 289.921L200.155 257.937C199.074 253.655 201.683 249.309 205.979 248.236C210.259 247.139 214.604 249.765 215.676 254.063L223.669 286.047C224.749 290.329 222.141 294.675 217.844 295.748C217.196 295.908 216.54 295.988 215.9 295.988Z" fill="black"/>
<path d="M87.9441 311.996C83.5197 311.996 79.9434 308.418 79.9434 303.992C79.9434 290.753 90.7124 279.98 103.946 279.98C108.37 279.98 111.946 283.558 111.946 287.984C111.946 292.41 108.37 295.988 103.946 295.988C99.5292 295.988 95.9449 299.574 95.9449 303.992C95.9449 308.418 92.3685 311.996 87.9441 311.996Z" fill="black"/>
<path d="M247.911 311.996C243.487 311.996 239.911 308.418 239.911 303.992C239.911 299.574 236.326 295.988 231.91 295.988C227.486 295.988 223.909 292.41 223.909 287.984C223.909 283.558 227.486 279.98 231.91 279.98C245.143 279.98 255.912 290.753 255.912 303.992C255.912 308.418 252.336 311.996 247.911 311.996Z" fill="black"/>
<path d="M231.91 295.988H103.946C99.5212 295.988 95.9448 292.41 95.9448 287.984C95.9448 283.558 99.5212 279.98 103.946 279.98H231.91C236.334 279.98 239.91 283.558 239.91 287.984C239.91 292.41 236.334 295.988 231.91 295.988Z" fill="black"/>
<path d="M87.9441 320C83.5197 320 79.9434 316.422 79.9434 311.996V303.992C79.9434 299.566 83.5197 295.988 87.9441 295.988C92.3685 295.988 95.9449 299.566 95.9449 303.992V311.996C95.9449 316.422 92.3685 320 87.9441 320Z" fill="black"/>
<path d="M247.911 320H87.9441C83.5197 320 79.9434 316.422 79.9434 311.996C79.9434 307.57 83.5197 303.992 87.9441 303.992H247.911C252.336 303.992 255.912 307.57 255.912 311.996C255.912 316.422 252.336 320 247.911 320Z" fill="black"/>
<path d="M247.911 320C243.487 320 239.911 316.422 239.911 311.996V303.992C239.911 299.566 243.487 295.988 247.911 295.988C252.336 295.988 255.912 299.566 255.912 303.992V311.996C255.912 316.422 252.336 320 247.911 320Z" fill="black"/>
<path d="M487.998 320H375.979C362.746 320 351.977 309.227 351.977 295.988V24.012C351.977 10.7734 362.746 0 375.979 0H487.998C501.231 0 512 10.7734 512 24.012V295.988C512 309.235 501.231 320 487.998 320ZM375.979 16.008C371.563 16.008 367.979 19.5938 367.979 24.012V295.988C367.979 300.406 371.563 303.992 375.979 303.992H487.998C492.414 303.992 495.999 300.406 495.999 295.988V24.012C495.999 19.5938 492.414 16.008 487.998 16.008H375.979Z" fill="black"/>
<path d="M503.999 47.992H359.978C355.553 47.992 351.977 44.4142 351.977 39.988C351.977 35.5618 355.553 31.984 359.978 31.984H503.999C508.424 31.984 512 35.5618 512 39.988C512 44.4142 508.424 47.992 503.999 47.992Z" fill="black"/>
<path d="M503.999 71.988H359.978C355.553 71.988 351.977 68.4102 351.977 63.984C351.977 59.5578 355.553 55.98 359.978 55.98H503.999C508.424 55.98 512 59.5578 512 63.984C512 68.4102 508.424 71.988 503.999 71.988Z" fill="black"/>
<path d="M431.993 168.036C418.76 168.036 407.991 157.263 407.991 144.024C407.991 130.785 418.76 120.012 431.993 120.012C445.226 120.012 455.995 130.785 455.995 144.024C455.995 157.263 445.226 168.036 431.993 168.036ZM431.993 136.02C427.577 136.02 423.992 139.606 423.992 144.024C423.992 148.442 427.577 152.028 431.993 152.028C436.409 152.028 439.994 148.442 439.994 144.024C439.994 139.606 436.409 136.02 431.993 136.02Z" fill="black"/>
<path d="M463.996 232.084H399.99C395.565 232.084 391.989 228.506 391.989 224.08C391.989 219.654 395.565 216.076 399.99 216.076H463.996C468.42 216.076 471.996 219.654 471.996 224.08C471.996 228.506 468.42 232.084 463.996 232.084Z" fill="black"/>
<path d="M463.996 256.096H399.99C395.565 256.096 391.989 252.518 391.989 248.092C391.989 243.666 395.565 240.088 399.99 240.088H463.996C468.42 240.088 471.996 243.666 471.996 248.092C471.996 252.518 468.42 256.096 463.996 256.096Z" fill="black"/>
<path d="M463.996 280.108H399.99C395.565 280.108 391.989 276.53 391.989 272.104C391.989 267.678 395.565 264.1 399.99 264.1H463.996C468.42 264.1 471.996 267.678 471.996 272.104C471.996 276.53 468.42 280.108 463.996 280.108Z" fill="black"/>
</svg>
