<svg width="50" height="50" viewBox="0 0 50 50" fill="none" xmlns="http://www.w3.org/2000/svg">
<path d="M48.4914 16.93L34.7769 1.57014C34.4376 1.19008 34.036 1 33.5717 1C33.1074 1 32.7054 1.19008 32.3664 1.57014C32.027 1.95042 31.8571 2.40046 31.8571 2.92038V10.6003H25.8572C13.1245 10.6003 5.31245 14.6304 2.41919 22.6904C1.47303 25.3701 1 28.7005 1 32.6805C1 36.0003 2.13398 40.5101 4.40176 46.2103C4.45524 46.3506 4.54868 46.5901 4.68284 46.93C4.81691 47.2697 4.93727 47.5697 5.04442 47.83C5.15193 48.0896 5.26808 48.3096 5.39295 48.4894C5.60704 48.8296 5.85716 49 6.14293 49C6.41079 49 6.62066 48.9001 6.77255 48.7001C6.92407 48.5003 6.99996 48.25 6.99996 47.9507C6.99996 47.7702 6.97764 47.5056 6.93288 47.1554C6.88823 46.8052 6.8658 46.5707 6.8658 46.4505C6.7764 45.091 6.73174 43.8601 6.73174 42.7609C6.73174 40.741 6.88823 38.9309 7.20045 37.331C7.51315 35.7308 7.94612 34.3461 8.49984 33.176C9.05346 32.0054 9.76751 30.9962 10.6427 30.1461C11.5176 29.2961 12.4594 28.6013 13.4684 28.0612C14.4775 27.521 15.6649 27.096 17.031 26.7861C18.397 26.4761 19.7719 26.261 21.156 26.1409C22.5401 26.0208 24.1071 25.9611 25.8572 25.9611H31.8571V33.6413C31.8571 34.1612 32.0267 34.6113 32.3657 34.9912C32.7053 35.3708 33.107 35.5611 33.571 35.5611C34.0352 35.5611 34.4371 35.3708 34.7769 34.9912L48.4911 19.6308C48.8305 19.2507 49 18.8009 49 18.2809C48.9999 17.761 48.8305 17.3108 48.4914 16.93Z" stroke="#6A717D"/>
</svg>
