<svg width="50" height="50" viewBox="0 0 50 50" fill="none" xmlns="http://www.w3.org/2000/svg">
<path d="M1.50859 16.93L15.2231 1.57014C15.5624 1.19008 15.964 1 16.4283 1C16.8926 1 17.2946 1.19008 17.6336 1.57014C17.973 1.95042 18.1429 2.40046 18.1429 2.92038V10.6003H24.1428C36.8755 10.6003 44.6875 14.6304 47.5808 22.6904C48.527 25.3701 49 28.7005 49 32.6805C49 36.0003 47.866 40.5101 45.5982 46.2103C45.5448 46.3506 45.4513 46.5901 45.3172 46.93C45.1831 47.2697 45.0627 47.5697 44.9556 47.83C44.8481 48.0896 44.7319 48.3096 44.607 48.4894C44.393 48.8296 44.1428 49 43.8571 49C43.5892 49 43.3793 48.9001 43.2275 48.7001C43.0759 48.5003 43 48.25 43 47.9507C43 47.7702 43.0224 47.5056 43.0671 47.1554C43.1118 46.8052 43.1342 46.5707 43.1342 46.4505C43.2236 45.091 43.2683 43.8601 43.2683 42.7609C43.2683 40.741 43.1118 38.9309 42.7995 37.331C42.4868 35.7308 42.0539 34.3461 41.5002 33.176C40.9465 32.0054 40.2325 30.9962 39.3573 30.1461C38.4824 29.2961 37.5406 28.6013 36.5316 28.0612C35.5225 27.521 34.3351 27.096 32.969 26.7861C31.603 26.4761 30.2281 26.261 28.844 26.1409C27.4599 26.0208 25.8929 25.9611 24.1428 25.9611H18.1429V33.6413C18.1429 34.1612 17.9733 34.6113 17.6343 34.9912C17.2947 35.3708 16.893 35.5611 16.429 35.5611C15.9648 35.5611 15.5629 35.3708 15.2231 34.9912L1.50887 19.6308C1.16953 19.2507 1 18.8009 1 18.2809C1.00009 17.761 1.16953 17.3108 1.50859 16.93Z" stroke="#6A717D"/>
</svg>
