<svg width="40" height="52" viewBox="0 0 40 52" fill="none" xmlns="http://www.w3.org/2000/svg">
<path d="M36.5808 8.82595V8.57595H36.3308H25.1281H24.8781V8.82595V16.1672H6.78743C3.3978 16.1672 0.75 18.8979 0.75 22.3637V45.4085C0.75 48.7939 3.30351 51.25 6.78743 51.25H30.4751C33.9951 51.25 36.5808 48.7975 36.5808 45.4085V8.82595ZM27.1018 18.1042V10.7629H34.3562V45.4085C34.3562 46.4937 33.9565 47.4026 33.2807 48.0411C32.6039 48.6806 31.635 49.063 30.4742 49.063H6.78743C5.6268 49.063 4.67623 48.6891 4.01744 48.0562C3.35953 47.4241 2.97358 46.5157 2.97358 45.4085V22.3637C2.97358 20.0621 4.61954 18.3542 6.78743 18.3542H26.8518H27.1018V18.1042ZM22.6221 0.75H22.3721V1V7.64476V7.89476H22.6221H39H39.25V7.64476V1V0.75H39H22.6221ZM18.8197 23.6724L18.8196 23.6723L18.1919 23.0198L18.0117 22.8326L17.8316 23.0198L17.2037 23.6723L17.2037 23.6723C16.7936 24.0986 14.7956 26.2075 12.8986 28.7621C11.9502 30.0392 11.023 31.4332 10.3318 32.7881C9.64349 34.1373 9.17552 35.4739 9.17552 36.6293C9.17638 41.4073 13.1447 45.284 18.0117 45.284C22.8786 45.284 26.847 41.4073 26.847 36.6293C26.847 35.4738 26.379 34.137 25.6907 32.7878C24.9995 31.4329 24.0723 30.0389 23.124 28.7619C21.227 26.2073 19.2293 24.0987 18.8197 23.6724ZM37.0255 5.7077H24.5949V2.93706H37.0255V5.7077ZM13.8963 31.1892C15.235 29.2488 16.8414 27.3366 18.0117 26.0431C19.182 27.3366 20.7882 29.2488 22.1266 31.1891C22.8318 32.2115 23.4592 33.2365 23.9093 34.1794C24.3621 35.128 24.6233 35.9686 24.6233 36.6293C24.6233 40.1908 21.6617 43.0969 18.0117 43.0969C14.3607 43.0969 11.3992 40.1907 11.3992 36.6293C11.3992 35.9686 11.6604 35.1281 12.1133 34.1795C12.5635 33.2366 13.191 32.2115 13.8963 31.1892Z" fill="#BB162B" stroke="#BB162B" stroke-width="0.5"/>
</svg>
