<svg width="50" height="50" viewBox="0 0 50 50" fill="none" xmlns="http://www.w3.org/2000/svg">
<path d="M23.3611 32.0349L33.9619 18.2126L26.7635 34.0785C26.3079 35.0825 25.1238 35.5277 24.1198 35.0714C23.1151 34.615 22.6714 33.4301 23.127 32.4253C23.1897 32.2865 23.2722 32.1507 23.3611 32.0349Z" fill="#BB162B"/>
<path d="M45.7484 43.7206H4.25317C3.83889 43.7206 3.45476 43.5055 3.2373 43.1524C1.15 39.7429 0 35.454 0 31.0714C0 17.4016 11.2151 6.28015 25.0008 6.28015C38.7849 6.28015 50 17.4349 50 31.146C50 35.5429 48.881 39.6944 46.7635 43.1516C46.5468 43.5056 46.1619 43.7206 45.7484 43.7206ZM4.93413 41.3381H45.0675C46.7389 38.3722 47.619 34.8635 47.619 31.146C47.619 18.7484 37.473 8.6619 25.0008 8.6619C12.5278 8.66269 2.38095 18.7143 2.38095 31.0714C2.38095 34.777 3.28413 38.3952 4.93413 41.3381Z" fill="#BB162B"/>
<path d="M25.0548 13.9381C24.3977 13.9381 23.8643 13.4048 23.8643 12.7468V7.98094C23.8643 7.32301 24.3977 6.78967 25.0548 6.78967C25.7127 6.78967 26.2453 7.32301 26.2453 7.98094V12.7468C26.2453 13.404 25.7127 13.9381 25.0548 13.9381Z" fill="#BB162B"/>
<path d="M6.85951 30.2191H1.30396C0.646813 30.2191 0.11348 29.6858 0.11348 29.0278C0.11348 28.3699 0.646813 27.8365 1.30396 27.8365H6.85951C7.51665 27.8365 8.04999 28.3699 8.04999 29.0278C8.04999 29.6858 7.51665 30.2191 6.85951 30.2191Z" fill="#BB162B"/>
<path d="M48.1293 30.2191H42.5738C41.9166 30.2191 41.3833 29.6858 41.3833 29.0278C41.3833 28.3699 41.9166 27.8365 42.5738 27.8365H48.1293C48.7865 27.8365 49.3198 28.3699 49.3198 29.0278C49.3198 29.6858 48.7865 30.2191 48.1293 30.2191Z" fill="#BB162B"/>
</svg>
