<svg width="42" height="50" viewBox="0 0 42 50" fill="none" xmlns="http://www.w3.org/2000/svg">
<path d="M21 9.375C9.40204 9.375 0 18.4692 0 29.6875C0 40.9058 9.40204 50 21 50C32.598 50 42 40.9058 42 29.6875C42 18.4692 32.598 9.375 21 9.375ZM21 46.875C11.2004 46.875 3.23077 39.1632 3.23077 29.6875C3.23077 20.2087 11.2005 12.5 21 12.5C30.7964 12.5 38.7692 20.2088 38.7692 29.6875C38.7692 39.1632 30.7964 46.875 21 46.875ZM5.27837 9.60088C4.83353 8.8501 5.09856 7.89795 5.86839 7.46465L8.67007 5.90215C9.4399 5.46875 10.4306 5.7251 10.8755 6.47588L12.6139 9.3873C10.5883 10.1747 8.71429 11.2367 7.02319 12.5245L5.27837 9.60088ZM34.9769 12.5244C33.2889 11.2365 31.4118 10.1745 29.3862 9.38721L31.1247 6.47578C31.5695 5.725 32.5572 5.46865 33.3333 5.90205L36.1287 7.46455C36.9016 7.89795 37.1667 8.8501 36.7218 9.60078L34.9769 12.5244ZM16.1538 4.6875V1.5625C16.1538 0.698828 16.8763 0 17.7692 0H24.2308C25.1237 0 25.8462 0.698828 25.8462 1.5625V4.6875C25.8462 5.55117 25.1237 6.25 24.2308 6.25V8.06279C23.1707 7.91631 22.098 7.8125 21 7.8125C19.902 7.8125 18.8293 7.91631 17.7692 8.06279V6.25C16.8763 6.25 16.1538 5.55117 16.1538 4.6875ZM21 15.625L24.2308 29.6875C24.2308 31.4148 22.7858 32.8125 21 32.8125C19.2143 32.8125 17.7692 31.4148 17.7692 29.6875L21 15.625Z" fill="#BB162B"/>
</svg>
